<svg xmlns="http://www.w3.org/2000/svg" viewBox="0 0 100.353 100.353"><path d="M74.86 11.059H27.526c-6.337 0-11.498 5.093-11.628 11.4-.003.04-.012.078-.012.118 0 .013.003.025.004.038 0 .029-.004.057-.004.086v55.563a1.5 1.5 0 001.5 1.5h6.561v6.902a1.5 1.5 0 103 0v-6.902h47.279v6.902a1.5 1.5 0 003 0v-6.902H85a1.5 1.5 0 001.5-1.5V22.7c0-6.418-5.222-11.641-11.64-11.641zm-14.256 40c-.747-4.436-4.602-7.829-9.245-7.829-4.653 0-8.516 3.406-9.252 7.854l-23.22.031V24.073l64.613-.087v27.042l-22.896.031zm-3.06.005l-12.38.017c.692-2.781 3.202-4.85 6.194-4.85 2.984-.001 5.489 2.06 6.186 4.833zM27.526 14.059H74.86c4.177 0 7.67 2.981 8.468 6.927l-64.284.086c.765-3.988 4.274-7.013 8.482-7.013zm-8.64 62.705V54.115l24.259-.033c.105.023.213.038.325.038.113 0 .222-.015.328-.038l15.054-.02a1.5 1.5 0 00.393.059c.138 0 .269-.025.396-.06l23.86-.032v22.735H18.886z"/><path d="M29.975 58.965a6.829 6.829 0 00-6.821 6.82c0 3.762 3.06 6.821 6.821 6.821s6.821-3.06 6.821-6.821c0-3.76-3.06-6.82-6.821-6.82zm0 10.642a3.825 3.825 0 01-3.821-3.821c0-2.106 1.714-3.82 3.821-3.82s3.821 1.714 3.821 3.82a3.825 3.825 0 01-3.821 3.821zm42.227-10.642a6.828 6.828 0 00-6.82 6.82 6.828 6.828 0 006.82 6.821 6.828 6.828 0 006.821-6.821c0-3.76-3.059-6.82-6.821-6.82zm0 10.642a3.825 3.825 0 01-3.82-3.821 3.825 3.825 0 013.82-3.82 3.825 3.825 0 013.821 3.82 3.825 3.825 0 01-3.821 3.821z"/></svg>