<svg data-name="Layer 1" xmlns="http://www.w3.org/2000/svg" viewBox="0 0 101 101"><path d="M39.5 27a1.5 1.5 0 001.5-1.5v-6a1.5 1.5 0 00-3 0v6a1.5 1.5 0 001.5 1.5zm13 0a1.5 1.5 0 001.5-1.5v-6a1.5 1.5 0 00-3 0v6a1.5 1.5 0 001.5 1.5zM38 49.5a1.5 1.5 0 003 0v-6a1.5 1.5 0 00-3 0zm13 0a1.5 1.5 0 003 0v-6a1.5 1.5 0 00-3 0zm-13 24a1.5 1.5 0 003 0v-6a1.5 1.5 0 00-3 0zm13 0a1.5 1.5 0 003 0v-6a1.5 1.5 0 00-3 0zM15.5 43a1.5 1.5 0 00-1.5 1.5v6a1.5 1.5 0 003 0v-6a1.5 1.5 0 00-1.5-1.5zM72 52.5v6a1.5 1.5 0 003 0v-6a1.5 1.5 0 00-3 0zM86.5 51a1.5 1.5 0 00-1.5 1.5v6a1.5 1.5 0 003 0v-6a1.5 1.5 0 00-1.5-1.5z"/><path d="M97.59 39.78L80.81 21.93a1.5 1.5 0 00-1.08-.47 1.69 1.69 0 00-1.09.45L64 37V9.5A1.5 1.5 0 0062.5 8h-34A1.5 1.5 0 0027 9.5V30H5.5A1.5 1.5 0 004 31.5v33a1.5 1.5 0 003 0V33h20v20.5a1.5 1.5 0 003 0V11h31v74H20.5a1.5 1.5 0 000 3h60a1.5 1.5 0 000-3H64V41.25l15.7-16.12L95 41.4v21.1a1.5 1.5 0 003 0V40.8a1.5 1.5 0 00-.41-1.02z"/></svg>