<?xml version="1.0" standalone="no"?>
<!DOCTYPE svg PUBLIC "-//W3C//DTD SVG 20010904//EN"
 "http://www.w3.org/TR/2001/REC-SVG-20010904/DTD/svg10.dtd">
<svg version="1.0" xmlns="http://www.w3.org/2000/svg"
 width="100.000000pt" height="100.000000pt" viewBox="0 0 100.000000 100.000000"
 preserveAspectRatio="xMidYMid meet">

<g transform="translate(0.000000,100.000000) scale(0.100000,-0.100000)"
fill="#000000" stroke="none">
<path d="M620 865 c-25 -8 -84 -38 -130 -66 -190 -116 -217 -130 -279 -141
-62 -12 -63 -12 -57 -40 3 -15 9 -41 12 -57 5 -24 2 -29 -18 -34 -12 -4 -33
-7 -45 -7 -31 0 -30 -11 15 -210 l38 -165 70 2 c87 2 144 23 277 101 112 66
161 85 264 103 37 7 71 15 75 19 4 3 4 21 -2 39 l-9 34 45 -6 c29 -3 47 -1 49
7 2 6 -17 101 -43 211 -43 179 -50 201 -72 212 -33 17 -133 15 -190 -2z m177
-23 c7 -5 31 -87 54 -183 23 -96 43 -177 46 -181 2 -5 -24 -8 -59 -8 -112 0
-160 -17 -410 -148 -65 -34 -128 -62 -140 -62 -21 0 -26 12 -62 173 -22 94
-41 178 -44 185 -3 8 7 12 29 12 45 1 102 27 235 111 61 38 136 78 165 89 55
20 163 26 186 12z m-580 -487 l28 -120 32 -3 c24 -2 74 19 205 87 229 118 328
146 328 92 0 -15 -9 -22 -37 -26 -110 -19 -169 -43 -308 -125 -91 -54 -151
-77 -230 -86 -51 -6 -54 -5 -60 17 -22 94 -65 293 -65 299 0 5 15 10 33 12 39
4 38 6 74 -147z"/>
<path d="M670 766 c0 -13 -7 -29 -15 -36 -38 -31 1 -97 52 -87 35 7 53 -1 53
-23 0 -14 -11 -21 -41 -27 -42 -8 -50 -28 -11 -28 13 -1 28 -9 34 -18 12 -22
31 -12 23 13 -3 11 0 20 10 24 18 7 20 57 3 74 -7 7 -31 12 -55 12 -64 0 -75
44 -13 53 30 5 39 27 12 27 -12 0 -23 9 -27 20 -9 28 -25 25 -25 -4z"/>
<path d="M500 684 c-62 -45 -154 -87 -204 -93 -27 -3 -51 -12 -54 -18 -6 -20
70 -16 126 5 58 22 192 107 192 122 0 17 -23 11 -60 -16z"/>
<path d="M485 589 c-79 -49 -156 -79 -203 -79 -15 0 -22 -5 -19 -12 6 -19 82
-11 136 13 71 31 192 109 186 120 -9 14 -14 12 -100 -42z"/>
<path d="M406 468 c-10 -6 -41 -13 -68 -17 -58 -7 -68 -25 -17 -29 40 -3 130
27 137 46 5 15 -26 15 -52 0z"/>
</g>
</svg>
